<svg width="240" height="240" viewBox="0 0 240 240" fill="none" xmlns="http://www.w3.org/2000/svg">
<g id="mingcute:safety-certificate-fill" clip-path="url(#clip0_2_28911)">
<g id="Group">
<path id="Vector 1391" d="M58.666 152.373V76.3878L161.454 61.334L199.999 102.194L137.185 194.667L58.666 152.373Z" fill="white"/>
<path id="Vector" fill-rule="evenodd" clip-rule="evenodd" d="M112.98 21.95C116.926 20.4735 121.238 20.281 125.3 21.4L127.02 21.95L197.02 48.1999C200.569 49.5308 203.667 51.843 205.953 54.867C208.239 57.8909 209.618 61.5022 209.93 65.2799L210 66.9299V120.56C210 136.764 205.624 152.668 197.336 166.592C189.048 180.516 177.154 191.944 162.91 199.67L160.25 201.06L126.71 217.83C124.863 218.752 122.846 219.283 120.785 219.39C118.723 219.496 116.662 219.176 114.73 218.45L113.29 217.83L79.75 201.06C65.2561 193.813 52.9878 182.787 44.24 169.146C35.4923 155.505 30.5898 139.756 30.05 123.56L30 120.56V66.9299C30.0001 63.1412 31.0763 59.4305 33.1033 56.2297C35.1304 53.0288 38.025 50.4696 41.45 48.8499L42.98 48.1999L112.98 21.95ZM154.33 86.2899L108.35 132.27L90.67 114.59C88.7936 112.715 86.2492 111.662 83.5965 111.663C80.9438 111.664 78.4001 112.719 76.525 114.595C74.6499 116.471 73.597 119.016 73.598 121.668C73.5989 124.321 74.6536 126.865 76.53 128.74L100.57 152.78C101.592 153.802 102.804 154.613 104.139 155.166C105.474 155.719 106.905 156.004 108.35 156.004C109.795 156.004 111.226 155.719 112.561 155.166C113.896 154.613 115.108 153.802 116.13 152.78L168.47 100.43C169.425 99.5075 170.187 98.404 170.711 97.184C171.235 95.9639 171.511 94.6517 171.523 93.3239C171.534 91.9961 171.281 90.6794 170.778 89.4504C170.275 88.2214 169.533 87.1049 168.594 86.166C167.655 85.2271 166.539 84.4845 165.31 83.9817C164.081 83.4789 162.764 83.2259 161.436 83.2374C160.108 83.249 158.796 83.5248 157.576 84.0489C156.356 84.573 155.252 85.3348 154.33 86.2899Z" fill="#1EB91E"/>
</g>
</g>
<defs>
<clipPath id="clip0_2_28911">
<rect width="240" height="240" fill="white"/>
</clipPath>
</defs>
</svg>
